<svg xmlns="http://www.w3.org/2000/svg" width="162.031" height="142.03" viewBox="0 0 162.031 142.03">
  <defs>
    <style>
      .cls-1 {
        fill: #130e27;
        fill-rule: evenodd;
      }
    </style>
  </defs>
  <path class="cls-1" d="M232.85,892.889a44.837,44.837,0,0,0-67.9,5.289,44.813,44.813,0,0,0-67.9-5.289,43.568,43.568,0,0,0,0,62.339l67.9,66.792,67.9-66.792A43.58,43.58,0,0,0,232.85,892.889ZM223.8,946.328c-3.223,3.169-58.847,57.892-58.847,57.892S109.329,949.5,106.1,946.328a31.135,31.135,0,0,1,0-44.532,32.393,32.393,0,0,1,45.268,0c2.992,2.937,13.58,13.358,13.58,13.358L178.526,901.8a32.394,32.394,0,0,1,45.269,0A31.136,31.136,0,0,1,223.8,946.328Zm-25.072-39.737v6.654a13.418,13.418,0,0,1,13.527,13.306,13.138,13.138,0,0,1-3.962,9.408l4.781,4.7a19.736,19.736,0,0,0,5.944-14.111A20.131,20.131,0,0,0,198.723,906.591Z" transform="translate(-83.938 -880)"/>
</svg>
